<svg width="24" height="24" viewBox="0 0 24 24" fill="none" xmlns="http://www.w3.org/2000/svg">
<g clip-path="url(#clip0_126_2)">
<path d="M24 12C24 18.628 18.628 24 12 24C5.372 24 0 18.628 0 12C0 5.372 5.372 0 12 0C18.628 0 24 5.372 24 12ZM17.247 4.439C16.027 4.481 14.964 5.154 14.172 6.083C13.294 7.103 12.711 8.312 12.291 9.544C11.538 8.93 10.959 8.13 9.752 7.783C8.786 7.486 7.737 7.678 6.939 8.297C6.529 8.616 6.229 9.054 6.078 9.551C5.718 10.727 6.459 11.776 6.797 12.151L7.534 12.941C7.684 13.095 8.053 13.501 7.873 14.079C7.68 14.71 6.922 15.116 6.141 14.878C5.793 14.772 5.293 14.512 5.407 14.148C5.452 13.998 5.559 13.885 5.617 13.757C5.669 13.647 5.694 13.563 5.712 13.515C5.853 13.05 5.659 12.445 5.161 12.292C4.696 12.149 4.222 12.262 4.036 12.858C3.827 13.538 4.153 14.771 5.896 15.307C7.936 15.935 9.661 14.823 9.905 13.375C10.058 12.468 9.65 11.793 8.899 10.928L8.287 10.251C7.916 9.881 7.79 9.249 8.173 8.766C8.497 8.357 8.958 8.182 9.712 8.387C10.815 8.687 11.306 9.45 12.124 10.067C11.786 11.177 11.564 12.29 11.365 13.289L11.242 14.035C10.657 17.105 10.209 18.792 9.048 19.761C8.814 19.927 8.478 20.177 7.975 20.195C7.709 20.2 7.623 20.019 7.62 19.938C7.614 19.754 7.77 19.667 7.875 19.585C8.029 19.502 8.265 19.361 8.247 18.911C8.231 18.379 7.791 17.917 7.153 17.938C6.676 17.955 5.95 18.403 5.977 19.224C6.005 20.074 6.796 20.709 7.989 20.668C8.627 20.647 10.051 20.387 11.453 18.719C13.086 16.808 13.543 14.618 13.887 13.013L14.27 10.897C14.483 10.921 14.711 10.939 14.96 10.945C16.992 10.989 18.009 9.935 18.024 9.169C18.034 8.705 17.72 8.248 17.28 8.259C16.894 8.268 16.562 8.537 16.474 8.913C16.38 9.341 17.12 9.726 16.542 10.102C16.132 10.368 15.396 10.554 14.358 10.402L14.546 9.36C14.932 7.384 15.405 4.953 17.207 4.893C17.339 4.886 17.819 4.899 17.83 5.216C17.833 5.321 17.808 5.35 17.683 5.591C17.568 5.746 17.509 5.936 17.515 6.128C17.532 6.632 17.915 6.964 18.472 6.944C19.215 6.921 19.427 6.196 19.417 5.825C19.385 4.951 18.465 4.401 17.247 4.439Z" fill="white"/>
</g>
<defs>
<clipPath id="clip0_126_2">
<rect width="24" height="24" fill="white"/>
</clipPath>
</defs>
</svg>
