<svg width="24" height="24" viewBox="0 0 24 24" fill="none" xmlns="http://www.w3.org/2000/svg">
<path d="M22.75 13.908V15.468L12 24L1.25 15.468V13.908L12 22.44L22.75 13.908ZM12 17.267L1.25 8.824L12 0L22.75 8.824L12 17.267ZM12.356 12.632C13.2028 12.632 14.015 12.2956 14.6138 11.6968C15.2126 11.098 15.549 10.2858 15.549 9.439C15.5477 8.62219 15.2326 7.83711 14.6688 7.24601C14.1051 6.65492 13.3358 6.30301 12.52 6.263L12.521 6.247L8.007 5.82L9.212 9.922C9.32537 10.675 9.70489 11.3625 10.2817 11.8597C10.8585 12.3569 11.5945 12.6309 12.356 12.632ZM12 20.269L1.25 11.737V13.27L12 21.802L22.75 13.27V11.737L12 20.269ZM12 17.903L1.25 9.46V11.1L12 19.63L22.75 11.098V9.46L12 17.903Z" fill="white"/>
</svg>
